<svg xmlns="http://www.w3.org/2000/svg" viewBox="0 0 160 231"><style>.st2{opacity:.3;fill:#b5b5b5}.st3,.st4,.st5{fill:#fff;stroke:#000;stroke-miterlimit:10}.st4,.st5{fill:gold}.st5{fill:#fff;stroke:#fff}.st6{opacity:.3;fill:#fff}.st9{opacity:.2;fill:#fc9fd0}.st10{opacity:.8}.st11{fill:#221f1e}.st12{fill:none;stroke:#fff;stroke-width:.5;stroke-miterlimit:10}.st13{fill:#fff}.st14{opacity:.5;fill:#fcfcfc}</style><path id="corp" fill="#fcfcfc" stroke="#000" stroke-miterlimit="10" d="M13.5 200.5c2 12 24 15 24 15l12-6s59 1 62-1 14 14 16 14 22-25 11-37-18-47-18-47-3-3-14-3S41 138 41 138s-11 31-23 40c0 0-8.5 8.5-8.5 9.5s4 13 4 13z"/><g id="OMBRE_PATTES"><path d="M120.1 168s-7 37.1-10 40.4c-3 3.3-4 7.6-5 7.6s11-46.9 11-46.9l4-1.1zM38 169s7 36.3 10 39.5c3 3.2 4 7.5 5 7.5s-11-45.9-11-45.9l-4-1.1z" class="st2"/></g><g id="pattes"><path d="M118.5 168.5c-1 0-14 57-14 57s-24 3.7-23.5-1.7c.5-5.3-2.5-21.3-2.5-53.3 0 0 0 49 2 52s-17 10-24 1-17-55-17-55" class="st3"/><path d="M136.5 186.5s-12-1-17 13 5 25 12 26 25-4 22-22-17-17-17-17z" class="st4"/><circle cx="23" cy="203" r="20" class="st4"/></g><g id="REFLECT_PATTES"><path d="M54.5 217.5s1 5 4 7 4-4 13-5M54.5 217.5s9 3 18 1" class="st5"/><path d="M104 225.5s-24.5 3-23.5-1 0-9.2 0-9.2l1 .2s15.2 4.8 24.1 2.1c.1 0 .3-.1.4-.1" class="st4"/><path d="M78.7 225.2c-8.8 4.7-15.2 2.3-19.5.6-4.3-1.7-6.5-9.9-6.5-9.9S71 221 79 215c0 0 2.5 5.5 1.5 7.5s-1.8 2.7-1.8 2.7z" class="st4"/><path d="M127.1 219s-6.5-23 14.9-29c0 0-12.1-8-19.6 9-7.4 17 4.7 20 4.7 20zM11.9 214.5c0-1-5.6-27 20.6-24 0 0-10.3-10-22.5 1s1.9 23 1.9 23z" class="st6"/></g><g id="Calque_10"><path d="M105 218.9s-10 1.6-15 0 7 2.4 10 3.2 4 2.4 4 1.6 1-4.8 1-4.8M74.5 218.5s-13 2-20-1c0 0 1.5 4.5 3.5 6.5s3-6 16.5-5.5z" class="st6"/></g><path id="OMBRE_FACE" fill="#b5b5b5" d="M118 137s1 6-17 19-45-7-45-7 45 5 62-12z" opacity=".2"/><path id="face" d="M97.2 47.4s10.8-33.2 17-26.2 9.2 16.7 8 30.3S108 64.2 108 64.2s12.8 17.3 14.8 33.7 8.3 35.7-18 49.3-54.7 3.3-62.5-6.3c-7.8-9.7-12.5-23.7-11.8-30.7.7-7.1 2.8-29.8 2.8-29.8S14 70.4 15.1 62.2s5.7-27.3 7.8-26.8 4.5.2 19.3 18.2c0 0 8.1 1 18.1 5s36.9-11.2 36.9-11.2z" class="st3"/><g id="Calque_17"><path d="M30.1 74s4-13-5-22M111 59s-4-13 5-22" class="st9"/></g><g id="DETAILS_FACE"><path d="M24.6 52.4c4.8 5.9 7.2 14.1 4.9 21.5-.2.6.8.9 1 .3 2.5-7.8-.1-16.3-5.1-22.5-.5-.6-1.2.2-.8.7zM115.6 36.6c-5 6.2-7.6 14.7-5.1 22.5.2.6 1.2.3 1-.3-2.3-7.4.1-15.6 4.9-21.5.4-.4-.4-1.2-.8-.7zM65.4 140.3c7.6-10.2 22.2-8.6 32.3-3.8.6.3 1.1-.6.5-.9-10.7-5.1-25.7-6.5-33.7 4.2-.3.5.5 1 .9.5zM88.4 116.2c1.4-.1 2.1 1 2.5 2.3.2.6 1.1.4 1-.3-.5-1.7-1.6-3.1-3.4-3-.7 0-.7 1-.1 1zM71.3 116.5c-1.9.1-2.8 1.6-3.1 3.3-.1.6.9.9 1 .3.2-1.3.8-2.5 2.1-2.6.7 0 .7-1 0-1z"/></g><g id="BUTON"><circle cx="98" cy="88.3" r="8" class="st11"/><path d="M105.2 88.3c0 4-3.2 7.2-7.2 7.2s-7.2-3.2-7.2-7.2 3.2-7.2 7.2-7.2 7.2 3.3 7.2 7.2z" class="st12"/><path d="M97 86.5c0 .4-.3.7-.7.7-.4 0-.7-.3-.7-.7 0-.4.3-.7.7-.7.3 0 .7.3.7.7zM100.5 86.5c0 .4-.3.7-.7.7-.4 0-.7-.3-.7-.7 0-.4.3-.7.7-.7.4 0 .7.3.7.7zM97 90.2c0 .4-.3.7-.7.7-.4 0-.7-.3-.7-.7 0-.4.3-.7.7-.7.3-.1.7.2.7.7zM100.5 90.2c0 .4-.3.7-.7.7-.4 0-.7-.3-.7-.7 0-.4.3-.7.7-.7.4-.1.7.2.7.7z" class="st13"/><g><circle cx="56" cy="96.3" r="8" class="st11"/><path d="M63.2 96.3c0 4-3.2 7.2-7.2 7.2s-7.2-3.2-7.2-7.2 3.2-7.2 7.2-7.2 7.2 3.3 7.2 7.2z" class="st12"/><path d="M55 94.5c0 .4-.3.7-.7.7-.4 0-.7-.3-.7-.7 0-.4.3-.7.7-.7.3 0 .7.3.7.7zM58.5 94.5c0 .4-.3.7-.7.7-.4 0-.7-.3-.7-.7 0-.4.3-.7.7-.7.4 0 .7.3.7.7zM55 98.2c0 .4-.3.7-.7.7-.4 0-.7-.3-.7-.7 0-.4.3-.7.7-.7.3-.1.7.2.7.7zM58.5 98.2c0 .4-.3.7-.7.7-.4 0-.7-.3-.7-.7 0-.4.3-.7.7-.7.4-.1.7.2.7.7z" class="st13"/></g></g><g id="corne"><path d="M53 49s-3-7 1-9 22-7 24-11 3.3 7.8 2.2 11.4C79 44 66 54 53 49zM60.2 25.3s-2.7-5.8-.7-9.8 6-7 5-12 8.7 6.7 6.3 14.3c-2.3 7.7-11.3 7.7-11.3 7.7" class="st4"/><path d="M55.5 38.5s-3-6-1-9 17-10 17-13 7 4 6 13-22 9-22 9z" class="st4"/></g><g id="reflec_corne"><path d="M58 28s-3 2-3 3 0 2 1 6 0-9 2-9zM56 41s-3 1.4-3 2.2c0 .7 0 1.4 1 4.3s0-6.5 2-6.5zM61 24s-2-7 1-10 3-5 3-5-5 11-4 15z" class="st14"/></g><g id="hair_full"><linearGradient id="SVGID_1_" x1="21.2253" x2="94.1583" y1="60.7636" y2="60.7636" gradientUnits="userSpaceOnUse"><stop offset="0" stop-color="#f0f"/><stop offset=".1701" stop-color="#f15a24"/><stop offset=".4299" stop-color="#fcee21"/><stop offset=".6077" stop-color="#39b54a"/><stop offset=".7752" stop-color="#29abe2"/><stop offset="1" stop-color="#662d91"/><stop offset="1"/></linearGradient><path fill="url(#SVGID_1_)" d="M66.5 56.5c-26 30-48 25-45 26s34-26 27-25S25 75 25 75c1-1 6-15 22-23s25-6 25-6 8-7 12-7 8.5 5.5 9.5 9.5 4 24-21 33c0 0 12-18 12-23s-7 23-38 21h-8"/></g><path id="hair_contours" fill="none" stroke="#000" stroke-miterlimit="10" d="M66 56.5c-26 30-48 25-45 26s34-26 27-25S24.5 75 24.5 75c1-1 6-15 22-23s25-6 25-6 8-7 12-7 8.5 5.5 9.5 9.5 4 24-21 33c0 0 12-18 12-23s-7 23-38 21h-8"/><g id="bkg_ailles"><path d="M353.4 53s-2.4 6.6 2.9 5.7c5.3-.9 10.7-6.9 10.7-6.9s-3.5 11.5.9 10.4c4.3-1.1 10.5-5.9 9.3-5.2-1.2.8-1.5 11.9 1.8 10.6 3.4-1.3 10.1-9.1 7.5-6.6-2.6 2.5-.1 10.2 2 9.6 2.2-.6 6.6-6.8 6.8-7.8s-3.6 7.4-.5 7.1c3.1-.4 7.7-2.5 9.7-7.1s.1-7.6.1-7.6c-.8-1.2-18.8-31.6-27.2-35.4s-25.7.7-29.3 8.1-5.8 22.3-4.9 27.6c.6 3.3 18.1-6.5 18.6-10.4 0 0 4.2-10.3-3.8-11-8-.7-8.1 4.4-6.6 6.8 1.5 2.4 7.6 2.6 7.3-.5" class="st13"/><path d="M353.1 52.9c-.8 2.4-1.1 5.7 2 6.1 2.7.4 6.1-2 8.1-3.5.9-.7 2-1.5 2.8-2.4 1-1.1.5-1.3.5-.8-.2 2.4-2.8 7.8-.4 9.8 2.5 2.1 9.5-3.3 11.2-5 .2-.2-.1-.5-.3-.4-2.2 1.2-1.7 9.9.5 11 2.3 1.2 9.5-5.1 9.6-7.2 0-.2-.3-.3-.4-.2-2.4 1.9-2.6 9.8 1.1 10.5 2.2.4 7.9-6.1 7.6-8.1 0-.2-.3-.2-.5-.1-.9 1.3-2.5 5-1.6 6.6 1.1 2 4.1.4 5.7-.4 6.1-3.2 8.1-10 4.6-15.6-4.5-7.3-9.1-14.4-14.2-21.3-4-5.3-8.5-12.2-15.5-13.5-7.9-1.5-19.6.9-24.9 7.3-2.9 3.5-3.9 8.8-4.8 13.1-1 4.7-2.4 10.6-1.5 15.4.9 5.1 9.2-.7 11.6-2.1 4.7-2.9 8.3-5.8 8.7-11.5.2-3.4-1-6-4.5-6.7-2.8-.5-6.9-.1-8 2.9-2 5.6 8 8.6 8.3 3.5 0-.3-.5-.3-.5 0-.3 4.2-6.9 1.5-7.5-1.3-.9-4.4 4.9-5.5 8-4.6 4.6 1.3 4 6.7 2.6 10.3-2 5-9.9 9.2-14.9 10.6-1.8.5-2.5.9-3.4-.7-.7-1.3-.1-4.2 0-5.6.4-5.2 1.3-10.4 2.8-15.4 1.4-4.7 3.3-8.4 7.7-10.9 4.5-2.6 9.9-3.9 15-4.1 8.2-.2 12.5 3.9 17.3 9.9 4.8 5.9 9.1 12.3 13.2 18.8 2.6 4 6.8 8.7 5.5 13.9-.9 3.5-4.3 7.6-8.1 8.2-2.8.4-3.1-1-2.4-3.4.3-1.2 2-3.7.1-1.9-1.5 1.5-2.3 3.9-4.2 5.2-5.1 3.4-4.4-4.8-4.1-7.4.1-.6 1.4-1.6 0-.6-.8.5-1.4 1.5-2.1 2.2-1.4 1.3-4.5 5.1-6.6 3.4-1.2-1-.9-4.1-.9-5.5 0-.9.4-2.2.3-3.1-.2-1.9-.1-1.2-1.5-.1-1.7 1.2-7.4 5.5-9.2 2.7-1.3-1.9.5-6.9 1.2-9 .1-.2-.2-.4-.4-.2-1.7 1.9-3.7 3.6-5.9 4.9-1.1.7-2.2 1.2-3.5 1.6-3.5-.1-4.9-1.4-4.2-3.6-.1-.4.3-1.1.4-1.5.2-.4-.2-.5-.4-.2z"/><path d="M555.9 52s2.4 6.6-2.9 5.7c-5.3-.9-10.7-6.9-10.7-6.9s3.5 11.5-.9 10.4c-4.3-1.1-10.5-5.9-9.3-5.2 1.2.8 1.5 11.9-1.8 10.6s-10.1-9.1-7.5-6.6c2.6 2.5.1 10.2-2 9.6-2.2-.6-6.6-6.8-6.8-7.8-.2-1 3.6 7.4.5 7.1-3.1-.4-7.7-2.5-9.7-7.1-2-4.7-.1-7.6-.1-7.6.8-1.2 18.8-31.6 27.2-35.4s25.7.7 29.3 8.1c3.6 7.4 5.8 22.3 4.9 27.6-.6 3.3-18.1-6.5-18.6-10.4 0 0-4.2-10.3 3.8-11 8-.7 8.1 4.4 6.6 6.8-1.5 2.4-7.6 2.6-7.3-.5" class="st13"/></g><g id="ombre_ailles"><path d="M405 56s-20-30-24-33-6-4-13-5-17 5-18 7 18-23 55 31M504 55s20-30 24-33 6-4 13-5 17 5 18 7-18-23-55 31" class="st2"/></g><path id="contour_AILLES" d="M555.7 52c.2.5.3 1 .4 1.5.6 4.9-5.2 3.5-7.7 2-2.2-1.3-4.2-3.1-5.9-4.9-.2-.2-.5 0-.4.2.6 2.2 1.3 4.5 1.3 6.8.1 4.3-3.9 2.6-6.4 1.3-1-.6-2-1.2-3-1.9-1.3-.9-1.3-2-1.5.1-.3 2.6 1.9 10.6-3.4 8.4-1.6-.7-3.4-2.7-4.5-3.9-.3-.3-.8-.9-1.2-1.2-1.9-1.3-.3.3 0 1.7.7 2.6-.2 7.8-3.7 6.6-1.9-.7-3.2-3.6-4.3-5-1.4-1.6-1.5-2.1-.6.4s1.1 4.7-2.2 4.2c-6-.8-10-9-7.6-14.1.7-1.5 1.8-3 2.7-4.4 3.7-5.9 7.4-11.7 11.5-17.2 3.7-5 8.3-12.4 14.6-14.3 8.1-2.4 21.9.4 26.8 7.9 2.3 3.5 3.2 8.5 4 12.5.8 4.2 2.1 9.8 1.4 14.1-.4 2.6-1.7 2.1-3.8 1.4-2-.7-3.9-1.7-5.8-2.7-2.9-1.6-6.7-3.7-8.4-6.7-1.2-2.2-1.9-5.9-1.1-8.2 1.4-4.1 10.1-5 11.4-.2 1.2 4.4-7.1 7.5-7.4 3 0-.3-.5-.3-.5 0 .3 4.8 8.3 2.4 8.5-1.8.3-5.9-9.9-6.4-12.2-1.9-2.1 4.3.5 9.8 3.8 12.5 2.2 1.8 12.2 9.5 15.4 7 1.7-1.3.5-7.2.3-9-.6-5.6-1.7-11.4-3.6-16.7-3.1-8.2-12.1-11.5-20.4-12.2-8.8-.7-13.5 2.6-18.8 9.1-5.7 6.9-10.6 14.4-15.3 21.9-3.7 5.9-7.2 11.8-.6 17.8 1.3 1.2 6.4 4.7 8.1 2.8 1.4-1.5-.5-5.7-1.4-7.1-.1-.2-.4-.2-.5.1-.4 2 5.3 8.6 7.6 8.1 3.7-.7 3.5-8.6 1.1-10.5-.2-.1-.4-.1-.4.2.2 2 7.4 8.4 9.6 7.2 2.1-1.2 2.7-9.8.5-11-.2-.1-.5.2-.3.4 1.8 1.7 8.4 6.8 11.1 5.1 2.7-1.7 0-7.7-.2-9.9 0-.7-.6-.3.2.5 1 1 2 1.9 3.1 2.7 2 1.5 5.4 4 8.1 3.6 3.1-.5 2.9-3.7 2-6.1 0-.6-.5-.5-.4-.2z"/></svg>
